@startuml
left to right direction
package activities{
    interface ActivityConnector
    note bottom of ActivityConnector: Exists only to reduce line clutter

    CardDataActivity .up.|> ActivityConnector
    SearchCardsActivity .up.|> ActivityConnector
    HomeActivity .up.|> ActivityConnector
    LoginActivity ..|> ActivityConnector
    RegisterActivity ..|> ActivityConnector
    ReviewActivity ..|> ActivityConnector


    abstract MainNavigationActivity
    HomeActivity --|> MainNavigationActivity
    MyCardsActivity --|> MainNavigationActivity
    MySubscriptionsActivity --|> MainNavigationActivity
    SearchCardsActivity -right-|> MainNavigationActivity
    CardDataActivity -right-|> MainNavigationActivity
    SettingsActivity -right-|> MainNavigationActivity

    MySubscriptionsActivity .up.|> ActivityConnector
    MyCardsActivity ..|> ActivityConnector

    package fragments {
        class DeleteCardDialog
        class SearchInfoDialog
        class SearchResults
        class VerifyEmailDialog
        class CardsAdpater
        SearchResults *-- CardsAdpater
        CardDataActivity --> DeleteCardDialog
        SearchCardsActivity --> SearchInfoDialog
        RegisterActivity --> VerifyEmailDialog
        SearchCardsActivity --> SearchResults
        MySubscriptionsActivity --> SearchResults
        MyCardsActivity --> SearchResults


    }
}

package models {
    class User
    class Card
    class Subscription
    class Labelling
    class Search
    enum Level
    abstract class Model
    Card -right-|> Model
    User --|> Model
    Subscription --|> Model
    Card *-- Labelling

}
package datastores {
            abstract FirestoreDataStore<T extends Model>
            class CrudFirestoreDataStore<T extends Model>
            class CardFirestoreDataStore
            class UserFirestoreDataStore
            class SubscriptionFirestoreDataStore
            class AuthFirestoreDataStore
            CardFirestoreDataStore --|> FirestoreDataStore
            UserFirestoreDataStore --|> FirestoreDataStore
            SubscriptionFirestoreDataStore --|> FirestoreDataStore
            FirestoreDataStore *-- CrudFirestoreDataStore
        }
  package mappers {
        interface ModelMapper
        ModelMapper -up-> Model
        CardMapper ..|> ModelMapper
        UserMapper ..|> ModelMapper
        SubscriptionMapper ..|> ModelMapper
        FirestoreDataStore *-- ModelMapper
    }

package repositories{
    interface ModelRepositoryConnector
    note top of ModelRepositoryConnector: Exists only to reduce line clutter

    interface CardRepository
    interface UserRepository
    interface SubscriptionRepository
    interface AuthRepository
    class CardFirestoreRepository
    class UserFirestoreRepository
    class SubscriptionFirestoreRepository
    class AuthFirestoreRepository
    CardRepository ..|> ModelRepositoryConnector
    UserRepository ..|> ModelRepositoryConnector
    SubscriptionRepository ..|> ModelRepositoryConnector
    CardFirestoreRepository ..|> CardRepository
    UserFirestoreRepository ..|> UserRepository
    SubscriptionFirestoreRepository ..|> SubscriptionRepository
    AuthFirestoreRepository ..|> AuthRepository




    CardFirestoreRepository -down-> CardFirestoreDataStore
    UserFirestoreRepository -down-> UserFirestoreDataStore
    SubscriptionFirestoreRepository -down-> SubscriptionFirestoreDataStore
    AuthFirestoreRepository -down-> AuthFirestoreDataStore
    CardFirestoreDataStore --> Search





}
    package listeners {
        interface DataStoreListenerConnector
        interface CrudDataStoreListener
        interface CardDataStoreListener
        interface UserDataStoreListener
        interface SubscriptionDataStoreListener
        CardDataStoreListener -u-|> DataStoreListenerConnector
        SubscriptionDataStoreListener --|> DataStoreListenerConnector
        UserDataStoreListener -up-|> DataStoreListenerConnector
        note top of DataStoreListenerConnector: Exists only to reduce line clutter

    }
    ActivityConnector -down-> ModelRepositoryConnector
    ActivityConnector ..|> DataStoreListenerConnector
    UserRepository --> AuthRepository


@enduml